<svg xmlns="http://www.w3.org/2000/svg" version="1.1" xmlns:xlink="http://www.w3.org/1999/xlink" width="1500" height="150" viewBox="0 0 1500 150"><svg xml:space="preserve" width="1500" height="150" data-version="2" data-id="lg_Rnc4U4Sr0wQfAzeGvW" viewBox="0 0 490 150" x="0" y="0"><rect width="100%" height="100%" fill="transparent"></rect><path fill="#05114a" d="M177.35 134.165v-40.6h3.95v40.6Z"></path><rect width="3.95" height="40.6" x="-1.98" y="-20.3" fill="none" rx="0" ry="0" transform="translate(179.82 114.36)"></rect><path fill="#05114a" d="m195.51 134.165 1.45-41.41h.69l29.18 35.27h.35l-1.28-34.46h3.94l-1.45 41.42h-.69l-29.18-35.27h-.34l1.27 34.45Z"></path><rect width="34.33" height="42.23" x="-17.16" y="-21.11" fill="none" rx="0" ry="0" transform="translate(213.17 114.37)"></rect><path fill="#05114a" d="M244.05 134.165v-40.6h17.69v2.85l-10.15-1.34q-2.66-.35-3.59-.35v17.69q.75 0 3.59-.17l9.52-.58v2.67l-9.52-.58q-2.84-.18-3.59-.18v19.43q1.04 0 3.65-.34l10.27-1.34v2.84Z"></path><rect width="17.87" height="40.6" x="-8.94" y="-20.3" fill="none" rx="0" ry="0" transform="translate(253.48 114.36)"></rect><path fill="#05114a" d="M274.1 93.565h7.77q6.15 0 9.54 2.59 3.39 2.58 3.39 7.22 0 3.59-2.11 5.97-2.12 2.38-6.12 3.19v.35q3.83.75 6.26 3.59 2.44 2.85 3.66 7.02 1.1 3.83 2.17 5.95 1.07 2.11 2.38 3.04 1.3.93 3.1 1.34v.34h-2.38q-2.55 0-4.2-.92-1.65-.93-2.81-3.14-1.16-2.2-2.21-6.09-1.68-5.97-4.46-8.46-2.79-2.5-6.79-2.5h-.35v-1.04h.35q9.34 0 9.34-8.59 0-8.46-8.76-8.46h-3.83v39.2h-3.94Z"></path><rect width="30.04" height="40.6" x="-15.02" y="-20.3" fill="none" rx="0" ry="0" transform="translate(289.62 114.36)"></rect><path fill="#05114a" d="m336.39 134.165-19.02-20.82L335 93.565h4.99l-19.09 18.16 20.71 22.44Zm-25.06 0v-40.6h3.95v40.6Z"></path><rect width="30.28" height="40.6" x="-15.14" y="-20.3" fill="none" rx="0" ry="0" transform="translate(326.97 114.36)"></rect><path fill="#05114a" d="M365.97 134.165v-40.6h3.94v18.8h24.36v-18.8h3.95v40.6h-3.95v-20.41h-24.36v20.41Z"></path><rect width="32.25" height="40.6" x="-16.13" y="-20.3" fill="none" rx="0" ry="0" transform="translate(382.6 114.36)"></rect><path fill="#05114a" d="M412.72 93.564h3.94v24.48q0 7.02 3.45 10.93 3.45 3.92 9.72 3.92 3.94 0 6.87-1.54t4.52-4.26q1.6-2.73 1.48-6.27l-.98-27.26h3.94l-.98 27.26q-.24 6.96-4.15 10.56-3.92 3.6-11.17 3.6-7.83 0-12.23-4.56-4.41-4.55-4.41-12.5Z"></path><rect width="32.94" height="41.42" x="-16.47" y="-20.71" fill="none" rx="0" ry="0" transform="translate(429.69 114.78)"></rect><path fill="#05114a" d="M459.58 134.165v-40.6h8.06q6.27 0 9.75 2.61 3.48 2.61 3.48 7.25 0 3.43-2.03 5.83-2.03 2.41-5.69 3.28v.35q4.99.64 7.8 3.45 2.82 2.81 2.82 7.1 0 5.05-3.89 7.89-3.88 2.84-10.9 2.84Zm8.12-39.2h-4.17v17.4h4.11q9.17 0 9.17-8.7t-9.11-8.7m1.28 18.79h-5.45v19.02h5.45q10.61 0 10.61-9.51t-10.61-9.51"></path><rect width="24.19" height="40.6" x="-12.1" y="-20.3" fill="none" rx="0" ry="0" transform="translate(472.17 114.36)"></rect><path fill="#05114a" d="M110.618 146.467H65.602a2.25 2.25 0 0 1-2.251-2.25v-24.76a2.25 2.25 0 1 1 4.502 0v22.509h40.514v-47.46c0-.658.288-1.281.788-1.711 9.883-8.47 14.893-20.575 14.893-35.973 0-13.599-5.327-26.417-14.999-36.091-9.642-9.64-22.43-14.95-36.006-14.95-13.581 0-26.368 5.31-36.01 14.95-9.569 9.568-14.838 22.386-14.838 36.091a2.244 2.244 0 0 1-.407 1.292L11.317 73.037l9.696 1.877a2.25 2.25 0 0 1 1.824 2.208v32.988c0 2.595 1.51 2.595 2.007 2.595h35.527c1.52 0 2.903-1.483 2.903-3.113a2.25 2.25 0 1 1 4.502 0c0 4.128-3.39 7.615-7.405 7.615H24.844c-3.894 0-6.509-2.852-6.509-7.095v-31.13L7.054 76.795a2.25 2.25 0 0 1-1.416-3.5l12.06-17.19C17.88 41.47 23.6 27.802 33.85 17.55 44.34 7.06 58.26 1.282 73.043 1.282c14.779 0 28.695 5.777 39.189 16.268 10.522 10.525 16.318 24.473 16.318 39.275 0 16.365-5.276 29.384-15.681 38.702v48.69a2.25 2.25 0 0 1-2.251 2.25"></path><path fill="#05114a" d="M72.354 96.95c-22.339 0-40.514-18.176-40.514-40.515s18.175-40.514 40.514-40.514 40.515 18.175 40.515 40.514S94.693 96.95 72.354 96.95m0-76.528c-19.856 0-36.013 16.157-36.013 36.013s16.157 36.013 36.013 36.013 36.013-16.156 36.013-36.013-16.156-36.013-36.013-36.013"></path><path fill="#05114a" d="M76.856 83.445h-9.003a2.25 2.25 0 0 1-2.251-2.251v-3.3a22.35 22.35 0 0 1-3.644-1.514l-2.339 2.336a2.249 2.249 0 0 1-3.182 0L50.07 72.35a2.244 2.244 0 0 1 0-3.183l2.339-2.336a22.553 22.553 0 0 1-1.515-3.644h-3.3a2.25 2.25 0 0 1-2.25-2.251v-9.003a2.25 2.25 0 0 1 2.25-2.251h3.3c.396-1.256.9-2.474 1.513-3.644l-2.337-2.334a2.25 2.25 0 0 1 0-3.185l6.366-6.368a2.318 2.318 0 0 1 3.182 0l2.339 2.337a22.341 22.341 0 0 1 3.644-1.513v-3.3a2.25 2.25 0 0 1 2.25-2.25h9.004a2.25 2.25 0 0 1 2.25 2.25v3.3c1.257.396 2.474.9 3.645 1.513l2.336-2.337a2.25 2.25 0 0 1 3.183 0l6.365 6.366a2.25 2.25 0 0 1 0 3.184l-2.336 2.335a22.577 22.577 0 0 1 1.512 3.644h3.302a2.25 2.25 0 0 1 2.25 2.25v9.004a2.25 2.25 0 0 1-2.25 2.25h-3.3A22.188 22.188 0 0 1 92.3 66.83l2.336 2.337a2.249 2.249 0 0 1 0 3.182l-6.365 6.366a2.249 2.249 0 0 1-3.183 0l-2.339-2.337a22.445 22.445 0 0 1-3.641 1.515v3.302a2.25 2.25 0 0 1-2.251 2.25m-6.753-4.5h4.502v-2.77a2.25 2.25 0 0 1 1.751-2.194 17.937 17.937 0 0 0 5.566-2.311 2.249 2.249 0 0 1 2.791.312l1.965 1.963 3.183-3.182-1.963-1.963a2.253 2.253 0 0 1-.315-2.791 17.871 17.871 0 0 0 2.314-5.57 2.254 2.254 0 0 1 2.197-1.752h2.768v-4.502h-2.768a2.25 2.25 0 0 1-2.195-1.748 17.997 17.997 0 0 0-2.314-5.571 2.254 2.254 0 0 1 .315-2.791l1.963-1.96-3.182-3.183-1.963 1.962a2.249 2.249 0 0 1-2.789.313 17.916 17.916 0 0 0-5.57-2.314 2.253 2.253 0 0 1-1.754-2.196v-2.769h-4.502v2.769a2.25 2.25 0 0 1-1.75 2.194 17.916 17.916 0 0 0-5.571 2.314 2.25 2.25 0 0 1-2.79-.315l-1.962-1.963-3.183 3.183 1.963 1.96a2.25 2.25 0 0 1 .313 2.791 17.844 17.844 0 0 0-2.312 5.569 2.253 2.253 0 0 1-2.196 1.755h-2.769v4.502h2.769a2.25 2.25 0 0 1 2.194 1.751 17.876 17.876 0 0 0 2.312 5.569 2.25 2.25 0 0 1-.313 2.79l-1.963 1.963 3.183 3.183 1.963-1.963a2.244 2.244 0 0 1 2.788-.315 17.916 17.916 0 0 0 5.571 2.314 2.253 2.253 0 0 1 1.753 2.197z"></path><path fill="#05114a" d="M72.354 72.19c-8.688 0-15.755-7.067-15.755-15.755S63.666 40.68 72.354 40.68c8.686 0 15.756 7.067 15.756 15.755s-7.07 15.756-15.756 15.756m0-27.01c-6.205 0-11.254 5.049-11.254 11.254S66.15 67.69 72.354 67.69s11.254-5.048 11.254-11.254-5.048-11.254-11.254-11.254"></path><path fill="#05114a" d="M72.354 63.188c-3.723 0-6.752-3.03-6.752-6.753s3.03-6.752 6.752-6.752 6.753 3.03 6.753 6.752-3.03 6.753-6.753 6.753m0-9.004c-1.24 0-2.25 1.011-2.25 2.251s1.01 2.251 2.25 2.251 2.251-1.01 2.251-2.25a2.254 2.254 0 0 0-2.25-2.252"></path></svg></svg>